<svg width="375" height="281" viewBox="0 0 375 281" fill="none" xmlns="http://www.w3.org/2000/svg">
<path d="M325.5 83.2605C321.49 62.8184 303.092 25.0147 297.551 36.7617C290.625 51.4455 293.299 93.4814 302.655 95.9286C312.012 98.3759 298.402 37.0497 286.737 41.3685C277.405 44.8235 282.849 62.7702 286.737 71.3117C285.36 59.7951 283.591 43.672 264.5 32.875" stroke="black" stroke-width="1.5" stroke-linecap="round"/>
<path d="M251.613 77.625L255.504 87.4819L269.1 80.9375L260.356 93.5668L271.612 99.554L258.625 101.154L259.395 111.724L251.613 104.531L240.863 114.375L244.601 101.154L234.125 99.554L242.869 93.5668L239.238 85.125L247.721 87.4819L251.613 77.625Z" fill="#FFDC4D"/>
<path d="M181.598 127.875L182.844 131.026L187.196 128.934L184.396 132.973L188 134.886L183.842 135.398L184.089 138.778L181.598 136.478L178.156 139.625L179.354 135.398L176 134.886L178.799 132.973L177.636 130.273L180.352 131.026L181.598 127.875Z" fill="#FFDC4D"/>
<path d="M201.946 43.75L204.049 49.0473L211.392 45.5302L206.67 52.3174L212.75 55.535L205.734 56.3952L206.15 62.0752L201.946 58.2099L196.14 63.5L198.159 56.3952L192.5 55.535L197.224 52.3174L195.261 47.7807L199.845 49.0473L201.946 43.75Z" fill="#FFDC4D"/>
<path d="M78.75 302.844C80.7221 292.764 89.7699 274.124 92.495 279.916C95.9014 287.156 94.5866 307.882 89.985 309.09C85.3835 310.296 92.0768 280.059 97.8138 282.187C102.403 283.891 99.7261 292.74 97.8138 296.952C98.491 291.274 99.3611 283.324 108.75 278" stroke="black" stroke-width="1.5" stroke-linecap="round"/>
<path d="M104.875 192.875V247.625H134.188V264.625H163.062" stroke="black" stroke-linecap="round"/>
<path d="M121.812 210.375C124.885 210.375 127.375 207.689 127.375 204.375C127.375 201.061 124.885 198.375 121.812 198.375C118.74 198.375 116.25 201.061 116.25 204.375C116.25 207.689 118.74 210.375 121.812 210.375Z" fill="black"/>
<path d="M136.312 210.375C139.385 210.375 141.875 207.689 141.875 204.375C141.875 201.061 139.385 198.375 136.312 198.375C133.24 198.375 130.75 201.061 130.75 204.375C130.75 207.689 133.24 210.375 136.312 210.375Z" fill="black"/>
<path d="M150.812 210.375C153.885 210.375 156.375 207.689 156.375 204.375C156.375 201.061 153.885 198.375 150.812 198.375C147.74 198.375 145.25 201.061 145.25 204.375C145.25 207.689 147.74 210.375 150.812 210.375Z" fill="black"/>
<path d="M113.5 31.3694C113.5 33.0233 113.127 36.25 111.47 36.25C109.813 36.25 107.5 33.0233 107.5 31.3694C107.5 29.7156 108.843 28.375 110.5 28.375C112.157 28.375 113.5 29.7156 113.5 31.3694Z" fill="black"/>
<path d="M120.75 33.2816C120.75 34.5416 120.462 37.0001 119.185 37.0001C117.908 37.0001 116.125 34.5416 116.125 33.2816C116.125 32.0216 117.16 31.0001 118.438 31.0001C119.715 31.0001 120.75 32.0216 120.75 33.2816Z" fill="black"/>
<path d="M114.375 41.2815C114.375 42.5415 114.087 45 112.81 45C111.533 45 109.75 42.5415 109.75 41.2815C109.75 40.0215 110.785 39 112.062 39C113.34 39 114.375 40.0215 114.375 41.2815Z" fill="black"/>
<path d="M120.75 41.2815C120.75 42.5415 120.462 45 119.185 45C117.908 45 116.125 42.5415 116.125 41.2815C116.125 40.0215 117.16 39 118.438 39C119.715 39 120.75 40.0215 120.75 41.2815Z" fill="black"/>
<path d="M127.125 41.2815C127.125 42.5415 126.837 45 125.56 45C124.283 45 122.5 42.5415 122.5 41.2815C122.5 40.0215 123.535 39 124.812 39C126.09 39 127.125 40.0215 127.125 41.2815Z" fill="black"/>
<path d="M114.375 49.2814C114.375 50.5414 114.095 52.9999 112.852 52.9999C111.61 52.9999 109.875 50.5414 109.875 49.2814C109.875 48.0214 110.882 46.9999 112.125 46.9999C113.368 46.9999 114.375 48.0214 114.375 49.2814Z" fill="black"/>
<path d="M130.75 51.6104C130.75 54.1567 130.175 59.1249 127.62 59.1249C125.066 59.1249 121.5 54.1567 121.5 51.6104C121.5 49.064 123.571 46.9999 126.125 46.9999C128.679 46.9999 130.75 49.064 130.75 51.6104Z" fill="black"/>
<path d="M269.375 170.875H157.875V235.75H269.375V170.875Z" fill="#FFDACD"/>
<path d="M289.199 293.434L289.049 293.25H288.813H201.625C183.953 293.25 169.625 278.924 169.625 261.25V220C169.625 202.327 183.953 188 201.625 188H316.125C333.799 188 348.125 202.327 348.125 220V261.25C348.125 278.924 333.798 293.25 316.125 293.25H311H310.426L310.505 293.819L314.761 324.622L289.199 293.434Z" stroke="black"/>
<path d="M252.25 254.375C256 251.325 255.729 248.104 255.125 246.875L306.75 259.25C306.896 261.396 307.1 266.837 306.75 271.437C306.4 276.037 297.146 291.271 292.562 298.312L288.812 293.75H236.625L222.062 285.187C222.062 284.229 223.088 280.637 227.188 273.937C232.312 265.562 247.562 258.187 252.25 254.375Z" fill="black"/>
<path d="M199.688 135.875L200.313 144.875L222.375 143.812C222.541 142 222.963 137.6 223.313 134.5C223.75 130.625 231.313 121.75 231.938 119.812C232.563 117.875 232.563 116.562 231.313 115.937C230.313 115.437 225.563 118.312 223.313 119.812L224.563 112.812C224.959 108.958 225.263 100.762 223.313 98.8125C221.363 96.8625 219.916 100.792 219.438 103C219.646 101.958 219.725 99.4875 218.375 97.9375C217.025 96.3875 215.146 99.9582 214.375 101.937C214.375 100.604 213.988 97.9375 212.438 97.9375C210.888 97.9375 209.625 103.312 209.188 106V104.062C209.25 102.562 209.188 99.4125 208.438 98.8125C207.5 98.0625 206.563 99.25 205.5 103C204.438 106.75 201.5 118.875 198.5 125.562C196.1 130.912 198.291 134.666 199.688 135.875Z" fill="#00B0FF"/>
<path d="M222.25 120.25C220.166 121.167 215.338 123.975 212.688 127.875" stroke="black" stroke-linecap="round"/>
<path d="M343.525 277.5C344.225 276.75 343.816 273.187 343.525 271.5L360.837 272.187C360.9 273.959 360.987 277.875 360.837 279.375C360.65 281.25 359.212 290.625 356.712 292.5C354.212 294.375 349.775 299.812 348.275 302.25C347.075 304.2 344.025 307.896 342.65 309.5C341.671 310.271 339.475 311.525 338.525 310.375C337.575 309.225 339.171 305.187 340.087 303.312C338.879 304.979 336.1 308.387 334.65 308.687C331.75 309.187 333.066 304.854 334.087 302.625C333.171 303.791 330.862 306.05 328.962 305.75C327.062 305.45 327.921 302.041 328.587 300.375C327.859 301.084 326.225 302.3 325.525 301.5C324.65 300.5 325.025 298.312 325.525 296.375C325.925 294.825 328.4 290.437 329.587 288.437C328.712 288.812 326.937 289.337 326.837 288.437C326.712 287.312 329.775 283.625 333.212 281.812C336.65 280 342.65 278.437 343.525 277.5Z" fill="#00B0FF"/>
<path d="M225.313 148.5C224.938 145.375 223.375 142.875 223.375 142.875C221.25 140.063 204.1 141.5 200.75 142.5C196.563 143.75 198.5 150.375 199.375 153.938C200.25 157.5 205.063 181.875 208.063 188.75C210.463 194.25 219.271 201.625 223.375 204.625C233.584 211.334 254.175 225.463 254.875 228.313C255.575 231.163 252.375 240.5 250.688 244.813C254.875 251.938 263.491 253.563 274.5 253.563C293.125 253.563 301.584 260.541 310.688 263.438C313.125 260.438 310.688 239.438 312.75 235.563C314.813 231.688 336.063 237.875 339.375 241.438C342.688 245 339.188 266.438 340.375 269.75C341.563 273.063 340.063 275.125 344.563 275.125C357.063 277.025 365.188 274.334 367.688 272.75C367.271 272.041 365.963 265.463 364.063 244.813C361.688 219 359.5 221.313 355.938 218.688C352.305 216.011 327.375 207.625 323.188 206.75C319 205.875 303.438 203.75 298.063 201.625C292.688 199.5 268.375 194.438 266 191.75C263.625 189.063 238.55 180.804 231.5 170.125C227.25 163.688 225.523 150.25 225.313 148.5Z" fill="#F07CF2"/>
<path d="M217.312 113.25L219.125 104.563M208.062 113.25L208.938 107.688L208.062 113.25ZM212.25 113.25L214.062 103.813L212.25 113.25Z" stroke="black" stroke-linecap="round"/>
<path d="M285.748 170.5C280.354 170.5 277.83 171.935 273.871 179.011C271.863 182.604 270.718 188.117 272.535 189.947C273.675 191.095 276.383 192.342 279.166 193.264L278.424 195.54L273.871 211.375L295.2 200.686C293.938 200.187 291.3 199.825 291.143 198.954C290.984 198.084 292.759 193.691 293.666 191.604C296.125 189.392 297.674 186.166 297.674 182.575C297.674 175.906 292.335 170.5 285.748 170.5Z" fill="#00B0FF"/>
<path d="M275.183 183.744L278.305 180.791L277.93 184.919L275.183 183.744Z" fill="#0E76D0"/>
<path d="M277.991 181.025L275.014 183.674L277.769 184.781" stroke="black" stroke-width="0.75" stroke-linecap="round"/>
<path d="M277.584 187.576L274.472 186.114C274.51 186.616 274.854 187.566 275.381 187.935C276.254 188.544 277.035 187.999 277.584 187.576Z" stroke="black" stroke-width="0.75"/>
<path d="M274.439 179.596C274.852 179.907 275.439 179.823 275.75 179.41C276.06 178.997 275.977 178.41 275.564 178.099C275.15 177.788 274.564 177.872 274.253 178.285C273.942 178.698 274.025 179.285 274.439 179.596Z" fill="black"/>
<path d="M280.674 182.71C281.087 183.02 281.674 182.937 281.985 182.524C282.295 182.111 282.212 181.524 281.799 181.213C281.386 180.902 280.799 180.985 280.488 181.399C280.177 181.812 280.26 182.399 280.674 182.71Z" fill="black"/>
<path d="M281.784 178.716C282.635 178.79 283.687 179.235 284.184 179.894" stroke="black" stroke-width="0.75" stroke-linecap="round"/>
<path d="M277.057 176.47C276.412 175.911 275.36 175.464 274.542 175.564" stroke="black" stroke-width="0.75" stroke-linecap="round"/>
<path d="M280.629 186.179C281.055 186.499 281.659 186.414 281.979 185.988C282.299 185.562 282.214 184.958 281.788 184.638C281.362 184.318 280.758 184.404 280.438 184.829C280.118 185.255 280.204 185.859 280.629 186.179Z" fill="#0E76D0"/>
<path d="M273.108 182.419C273.534 182.739 274.138 182.654 274.458 182.228C274.778 181.802 274.692 181.198 274.267 180.878C273.841 180.558 273.237 180.644 272.917 181.069C272.597 181.495 272.682 182.099 273.108 182.419Z" fill="#0E76D0"/>
<path d="M293.666 191.604C296.125 189.392 297.674 186.166 297.674 182.575C297.674 181.726 297.587 180.899 297.424 180.1C304.454 181.782 316.726 181.782 311.975 173.469C308.251 166.951 301.385 173.7 296.585 177.527C294.697 173.379 290.555 170.5 285.747 170.5C282.245 170.5 279.951 171.105 277.69 173.469C278.424 175.201 281.889 177.527 287.134 177.527C291.186 177.527 293.517 179.21 291.785 180.892C290.4 182.237 289.162 184.62 288.717 185.642C287.959 187.63 287.886 191.604 293.666 191.604Z" fill="black"/>
<path d="M288.765 188.627C289.803 189.399 291.502 188.872 292.56 187.45C293.618 186.028 293.635 184.25 292.597 183.478C291.56 182.706 289.861 183.232 288.803 184.654C287.744 186.076 287.728 187.855 288.765 188.627Z" fill="#0E76D0"/>
<path d="M289.198 185.926C289.655 185.355 290.8 184.551 291.52 184.449" stroke="black" stroke-width="0.75" stroke-linecap="round"/>
<path d="M290.901 184.749C291.123 185.079 291.351 185.803 291.288 186.191" stroke="black" stroke-width="0.75" stroke-linecap="round"/>
<path d="M220.875 153.75C220.875 156.374 223.001 158.5 225.625 158.5C226.149 158.5 226.654 158.415 227.125 158.259L225.312 149.01C222.835 149.171 220.875 151.231 220.875 153.75Z" fill="#DC34DF"/>
<path d="M215.625 191.625C218.524 191.625 220.875 189.274 220.875 186.375C220.875 183.475 218.524 181.125 215.625 181.125C212.726 181.125 210.375 183.475 210.375 186.375C210.375 189.274 212.726 191.625 215.625 191.625Z" fill="#DC34DF"/>
<path d="M264.5 204.375C267.399 204.375 269.75 202.025 269.75 199.125C269.75 196.226 267.399 193.875 264.5 193.875C261.601 193.875 259.25 196.226 259.25 199.125C259.25 202.025 261.601 204.375 264.5 204.375Z" fill="#DC34DF"/>
<path d="M267.125 238.375C270.024 238.375 272.375 236.024 272.375 233.125C272.375 230.226 270.024 227.875 267.125 227.875C264.226 227.875 261.875 230.226 261.875 233.125C261.875 236.024 264.226 238.375 267.125 238.375Z" fill="#DC34DF"/>
<path d="M292.375 249.625C289.475 249.625 287.125 251.914 287.125 254.813C289.75 255.375 294.812 256.75 296.812 257.688C297.305 256.888 297.625 255.884 297.625 254.875C297.625 251.976 295.275 249.625 292.375 249.625Z" fill="#DC34DF"/>
<path d="M307 226.375C309.899 226.375 312.25 224.025 312.25 221.125C312.25 218.226 309.899 215.875 307 215.875C304.101 215.875 301.75 218.226 301.75 221.125C301.75 224.025 304.101 226.375 307 226.375Z" fill="#DC34DF"/>
<path d="M338.874 219.57C341.771 219.645 344.183 217.355 344.256 214.457C344.264 214.181 344.248 213.971 344.214 213.706L335.293 210.537C334.378 211.455 333.796 212.789 333.76 214.186C333.685 217.085 335.975 219.495 338.874 219.57Z" fill="#DC34DF"/>
<path d="M358.375 267.375C361.274 267.375 363.625 265.025 363.625 262.125C363.625 259.226 361.274 256.875 358.375 256.875C355.476 256.875 353.125 259.226 353.125 262.125C353.125 265.025 355.476 267.375 358.375 267.375Z" fill="#DC34DF"/>
<path d="M74.1349 184.183L74.285 184H74.5216H157.375C175.049 184 189.375 169.674 189.375 152V114.625C189.375 96.952 175.048 82.6251 157.375 82.6251H49.375C31.7019 82.6251 17.375 96.952 17.375 114.625V152C17.375 169.674 31.7019 184 49.375 184H53.1375H53.7114L53.6328 184.569L49.5388 214.186L74.1349 184.183Z" stroke="black"/>
<path d="M125 184.437L117.312 166.625L53.5 180.875L48.5625 215.75L74.375 184.562L125 184.437Z" fill="black"/>
<path d="M173.929 101.744L169.791 109.761L149.954 100.047C150.518 98.3167 151.874 94.1098 152.781 91.1247C153.914 87.3933 150.485 76.2488 150.679 74.2222C150.873 72.1957 151.391 70.9904 152.788 70.9117C153.904 70.8487 157.126 75.3698 158.598 77.6383L160.223 70.7157C161.386 67.0199 164.353 59.3738 166.915 58.3557C169.479 57.3374 169.25 61.5179 168.815 63.7354C169.036 62.6964 169.943 60.3963 171.796 59.5078C173.649 58.6193 173.96 62.6423 173.885 64.7649C174.413 63.5407 175.825 61.2455 177.248 61.8594C178.671 62.4733 177.701 67.9088 177.039 70.5498L177.806 68.7708C178.343 67.3687 179.648 64.501 180.574 64.2472C181.733 63.9298 182.123 65.3915 181.613 69.2557C181.103 73.1198 178.998 85.4167 179.104 92.7455C179.189 98.6085 175.69 101.188 173.929 101.744Z" fill="#ED4546"/>
<path d="M159.4 78.4607C160.95 80.1276 164.272 84.6189 165.161 89.2496" stroke="black" stroke-linecap="round"/>
<path d="M166.706 73.9889L168.484 65.2939M175.2 77.6525L176.6 72.1983L175.2 77.6525ZM171.355 75.9939L173.429 66.6104L171.355 75.9939Z" stroke="black" stroke-linecap="round"/>
<path d="M51.5626 102.562C59.4626 96.8125 83.3542 90.9584 94.3126 88.75C99.3751 87.6681 109.313 88.75 112.75 91.75C116.188 94.75 123 109.75 126.25 111.562C129.5 113.375 130.75 113.812 138.125 109.75C145.5 105.687 148.125 94 154.875 93C160.275 92.2 169.791 100.958 173.875 105.437C173.063 106.396 171.075 108.962 169.625 111.562C167.813 114.812 155.688 130.375 148.125 137.937C142.075 143.987 124.771 143.334 116.875 142.25C117.271 143.541 118.8 147.225 121.75 151.625C124.7 156.025 125.188 159.209 125.063 160.25C111.375 177.625 71.3751 179.125 68.6251 179.125C65.8751 179.125 39.7501 185.312 23.4376 179.125C7.12504 172.937 18.5001 152.187 20.7501 148C23.0001 143.812 41.6876 109.75 51.5626 102.562Z" fill="#00B0FF"/>
<path d="M86.5566 136.764C89.4226 138.329 92.793 138.691 95.9263 137.771C99.0594 136.851 101.699 134.724 103.264 131.858C104.829 128.991 105.191 125.621 104.271 122.488C103.351 119.355 101.224 116.716 98.3579 115.151L96.0699 119.341C97.8246 120.299 99.1269 121.915 99.6903 123.833C100.254 125.751 100.032 127.815 99.0735 129.57C98.1154 131.325 96.4994 132.626 94.5811 133.19C92.6629 133.754 90.5994 133.531 88.8446 132.574L86.5566 136.764Z" fill="#0E76D0"/>
<path d="M50.7577 171.509C51.3222 168.292 50.5858 164.984 48.7107 162.31C46.8355 159.636 43.9752 157.817 40.7588 157.254C37.5425 156.689 34.2337 157.425 31.5603 159.3C28.8869 161.175 27.0678 164.036 26.5034 167.252L31.2057 168.077C31.5513 166.109 32.6649 164.357 34.3018 163.209C35.9385 162.061 37.9644 161.61 39.9335 161.956C41.9028 162.301 43.654 163.415 44.802 165.051C45.9502 166.689 46.4009 168.714 46.0554 170.684L50.7577 171.509Z" fill="#0E76D0"/>
<path d="M137.029 112.208C136.126 115.346 136.507 118.714 138.087 121.571C139.669 124.429 142.32 126.541 145.457 127.444C148.596 128.347 151.964 127.966 154.821 126.385C157.679 124.805 159.791 122.154 160.694 119.015L156.106 117.696C155.554 119.617 154.26 121.24 152.51 122.208C150.761 123.176 148.699 123.409 146.777 122.856C144.856 122.303 143.232 121.01 142.265 119.26C141.297 117.511 141.064 115.449 141.617 113.527L137.029 112.208Z" fill="#0E76D0"/>
<path d="M97.7448 178.809C99.5128 176.064 100.118 172.729 99.4265 169.537C98.7354 166.345 96.8048 163.559 94.0593 161.791C91.3138 160.024 87.9785 159.419 84.787 160.11C81.5955 160.8 78.8093 162.731 77.0413 165.476L81.0551 168.061C82.1376 166.381 83.8435 165.199 85.7975 164.775C87.7515 164.352 89.7935 164.722 91.4744 165.805C93.1554 166.887 94.3374 168.594 94.7605 170.547C95.1838 172.501 94.8133 174.544 93.7309 176.225L97.7448 178.809Z" fill="#0E76D0"/>
<path d="M103.682 99.678C106.844 100.493 110.2 100.019 113.013 98.3595C114.124 97.7036 115.114 96.8841 115.956 95.9374C115.956 95.9374 114.968 94.4209 114.375 93.6249C113.812 92.8682 113.013 91.9596 113.013 91.9596C112.391 92.8851 111.565 93.6702 110.586 94.2477C108.865 95.2637 106.81 95.5541 104.874 95.055C102.938 94.5559 101.279 93.3081 100.263 91.5862C99.6687 90.5789 99.3227 89.4574 99.2378 88.3124C97.625 88.3124 95.6057 88.5207 94.4832 88.7499C94.6324 90.5905 95.1952 92.3919 96.1514 94.0125C97.8109 96.8249 100.52 98.8629 103.682 99.678Z" fill="#0E76D0"/>
<path d="M43.2659 133.366C40.0409 133.88 36.7443 133.09 34.1013 131.173C33.2142 130.529 32.4252 129.776 31.7488 128.938L34.521 124.438C35.0578 125.569 35.873 126.56 36.905 127.309C38.5233 128.483 40.5415 128.966 42.516 128.653C44.4905 128.338 46.2594 127.253 47.4335 125.634C48.6077 124.016 49.0909 121.998 48.7769 120.023L53.4918 119.273C54.0047 122.498 53.2154 125.795 51.2977 128.438C49.3799 131.081 46.4908 132.854 43.2659 133.366Z" fill="#0E76D0"/>
<path d="M115.75 139.313C111 130.25 110.775 120.15 108.125 111.5" stroke="black" stroke-linecap="round"/>
<path d="M65.375 117.25C64.9166 122.771 58.7625 146.325 56.5625 153.375" stroke="black" stroke-linecap="round"/>
<path d="M47.9133 152.125C53.3886 152.968 66.059 155.326 72.9378 158.014" stroke="black" stroke-linecap="round"/>
<path d="M72.23 164.161C65.6855 167.291 62.4976 176.744 65.5279 179.099L74.5116 180.596C80.9405 181.059 94.7821 181.95 98.7179 181.807C102.654 181.665 102.758 179.942 102.318 179.099C103.055 179.099 104.757 178.977 105.67 178.492C107.552 177.58 106.953 176.116 106.418 175.497C106.822 175.497 108.38 175.497 109.021 174.106C109.847 172.31 107.226 171.196 105.67 171.112C106.121 170.555 106.52 169.555 105.064 168.76C102.318 167.261 96.0797 166.585 93.7982 166.585C93.4845 164.96 91.172 164.292 90.055 164.161C85.6462 163.259 78.8252 163.662 72.23 164.161Z" fill="#ED4546"/>
<path d="M92.4791 166.621C90.5777 166.336 88.5006 165.93 86.7039 166.015" stroke="black" stroke-linecap="round"/>
<path d="M104.458 170.935C101.748 170.186 95.9015 169.081 92.7644 169.438" stroke="black" stroke-linecap="round"/>
<path d="M104.458 174.678C101.979 173.996 96.6321 172.99 93.7627 173.315" stroke="black" stroke-linecap="round"/>
<path d="M101.106 178.243C98.8926 177.63 94.1155 176.724 91.5522 177.016" stroke="black" stroke-linecap="round"/>
<path d="M79.2924 64.7499C84.6863 64.7499 87.2101 66.1851 91.169 73.2614C93.1785 76.8532 94.3233 82.3668 92.5051 84.1978C91.3658 85.3449 88.6586 86.5922 85.8741 87.5134L86.6163 89.7896C86.6163 89.7896 90.2501 92.1874 87.6876 95.9999C82.5906 103.583 73.0748 97.7348 73.8986 93.2041C74.0569 92.3332 72.2821 87.9412 71.3748 85.8541C68.9158 83.6423 67.3665 80.4166 67.3665 76.8244C67.3665 70.1559 72.7059 64.7499 79.2924 64.7499Z" fill="#ED4546"/>
<path d="M89.858 77.993L86.7354 75.0409L87.11 79.1686L89.858 77.993Z" fill="#D7090A"/>
<path d="M87.0486 75.2753L90.0266 77.9241L87.2716 79.031" stroke="black" stroke-width="0.75" stroke-linecap="round"/>
<path d="M87.4561 81.8263L90.5677 80.3638C90.5301 80.8659 90.1869 81.8166 89.6587 82.1848C88.7861 82.7931 88.0052 82.2482 87.4561 81.8263Z" stroke="black" stroke-width="0.75"/>
<path d="M90.6021 73.8456C90.1888 74.1563 89.6019 74.0731 89.2912 73.6598C88.9805 73.2465 89.0637 72.6596 89.477 72.3489C89.8903 72.0382 90.4772 72.1214 90.7879 72.5347C91.0986 72.948 91.0154 73.5349 90.6021 73.8456Z" fill="black"/>
<path d="M84.367 76.9591C83.9537 77.2698 83.3668 77.1867 83.0561 76.7733C82.7454 76.36 82.8286 75.7731 83.2419 75.4624C83.6552 75.1517 84.2421 75.2349 84.5528 75.6482C84.8635 76.0615 84.7803 76.6485 84.367 76.9591Z" fill="black"/>
<path d="M83.2565 72.9663C82.406 73.0401 81.3532 73.4854 80.8562 74.1431" stroke="black" stroke-width="0.75" stroke-linecap="round"/>
<path d="M87.9834 70.7203C88.6279 70.1606 89.6802 69.7138 90.4983 69.8141" stroke="black" stroke-width="0.75" stroke-linecap="round"/>
<path d="M84.4104 80.4296C83.9848 80.7495 83.3804 80.6639 83.0605 80.2383C82.7405 79.8127 82.8262 79.2083 83.2518 78.8883C83.6774 78.5684 84.2818 78.654 84.6018 79.0796C84.9217 79.5053 84.8361 80.1096 84.4104 80.4296Z" fill="#D7090A"/>
<path d="M91.9322 76.6689C91.5066 76.9888 90.9022 76.9031 90.5822 76.4775C90.2623 76.0519 90.3479 75.4475 90.7735 75.1276C91.1992 74.8076 91.8036 74.8933 92.1235 75.3189C92.4434 75.7445 92.3578 76.3489 91.9322 76.6689Z" fill="#D7090A"/>
<path d="M71.3747 85.8541C68.9157 83.6423 67.3663 80.4166 67.3663 76.8244C67.3663 75.9764 67.3489 75.2252 67.5624 74.1874C67.7758 73.1498 68.4552 71.7769 68.4552 71.7769C70.3431 67.6291 74.4856 64.7499 79.2923 64.7499C82.7958 64.7499 85.0884 65.3554 87.3501 67.7191C86.6162 69.4511 83.1521 71.7769 77.9066 71.7769C73.8547 71.7769 71.5229 73.4594 73.2549 75.1419C74.6406 76.4879 75.8777 78.8698 76.3231 79.8926C77.0819 81.8797 77.1547 85.8541 71.3747 85.8541Z" fill="black"/>
<path d="M76.2756 82.8772C75.2381 83.6493 73.5391 83.1225 72.4809 81.7005C71.4227 80.2784 71.4059 78.4998 72.4434 77.7277C73.4809 76.9556 75.1799 77.4824 76.2381 78.9044C77.2963 80.3265 77.3131 82.1051 76.2756 82.8772Z" fill="#D7090A"/>
<path d="M75.8426 80.1757C75.3849 79.6047 74.2399 78.8014 73.5208 78.6993" stroke="black" stroke-width="0.75" stroke-linecap="round"/>
<path d="M74.1397 78.9986C73.9186 79.3283 73.689 80.0518 73.7531 80.4407" stroke="black" stroke-width="0.75" stroke-linecap="round"/>
</svg>
